# xmcd CD database file
#
# Track frame offsets:
#	150
#	32352
#	69466
#	97026
#	131366
#	160178
#	177407
#	186345
#	224021
#	231916
#	244369
#
# Disc length: 3834 seconds
#
# Revision: 3
# Processed by: cddbd v1.5.1PL2 Copyright (c) Steve Scherf et al.
# Submitted via: CDex 1.51
#
DISCID=9e0ef80b
DTITLE=Trio Marcina Ma³eckiego - Odyseja Kosmiczna
DYEAR=2005
DGENRE=Jazz
TTITLE0=Oblok Magellana
TTITLE1=Odyseja Kosmiczna
TTITLE2=Kasjopeja
TTITLE3=Ucieczka Galaktyk
TTITLE4=Swietlny Blues
TTITLE5=Marsjanski Walc
TTITLE6=Sonda Galileo
TTITLE7=Gwiezdne Zawirowania
TTITLE8=Moment Kosmiczny
TTITLE9=Taniec Ksiezycow
TTITLE10=Bossa Perseusz
EXTD=YEAR: 2005
EXTT0=
EXTT1=
EXTT2=
EXTT3=
EXTT4=
EXTT5=
EXTT6=
EXTT7=
EXTT8=
EXTT9=
EXTT10=
PLAYORDER=
